<svg xmlns="http://www.w3.org/2000/svg" xmlns:xlink="http://www.w3.org/1999/xlink" width="1920" zoomAndPan="magnify" viewBox="0 0 1440 809.999993" height="1080" preserveAspectRatio="xMidYMid meet" version="1.0"><defs><g/><clipPath id="7e3f54d247"><path d="M 0 74 L 736.5 74 L 736.5 809.984375 L 0 809.984375 Z M 0 74 " clip-rule="nonzero"/></clipPath></defs><g clip-path="url(#7e3f54d247)"><path fill="#03768b" d="M 351.386719 809.332031 L 287.308594 378.042969 L 264.75 477.820312 L 27.984375 477.820312 C 12.554688 477.820312 0 465.332031 0 449.902344 C 0 434.40625 12.554688 421.917969 27.984375 421.917969 L 220.023438 421.917969 L 298.75 74.257812 L 364.855469 519.34375 L 431.289062 248.25 L 496.9375 475.011719 L 536.820312 426.558594 L 708.527344 426.558594 C 723.957031 426.558594 736.511719 439.113281 736.511719 454.542969 C 736.511719 469.976562 724.023438 482.53125 708.527344 482.53125 L 563.304688 482.53125 L 472.613281 592.507812 L 435.800781 465.007812 L 351.386719 809.332031 " fill-opacity="1" fill-rule="nonzero"/></g><path fill="#53c6cb" d="M 1064.832031 306.695312 C 1040.140625 331.386719 1040.140625 371.425781 1064.835938 396.121094 L 1154.261719 306.695312 C 1129.566406 282 1089.53125 282.003906 1064.832031 306.695312 Z M 1064.832031 306.695312 " fill-opacity="1" fill-rule="nonzero"/><path fill="#006679" d="M 1154.261719 396.121094 C 1178.957031 371.425781 1178.957031 331.390625 1154.261719 306.695312 L 1064.835938 396.121094 C 1089.53125 420.816406 1129.566406 420.816406 1154.261719 396.121094 Z M 1154.261719 396.121094 " fill-opacity="1" fill-rule="nonzero"/><path fill="#0ca7c2" d="M 1070.140625 312 C 1048.371094 333.765625 1048.378906 369.054688 1070.140625 390.8125 L 1148.953125 312 C 1127.191406 290.238281 1091.898438 290.234375 1070.140625 312 Z M 1070.140625 312 " fill-opacity="1" fill-rule="nonzero"/><path fill="#0ca7c2" d="M 1148.953125 390.816406 C 1170.71875 369.050781 1170.71875 333.765625 1148.953125 311.996094 L 1070.140625 390.8125 C 1091.90625 412.582031 1127.191406 412.582031 1148.953125 390.816406 Z M 1148.953125 390.816406 " fill-opacity="1" fill-rule="nonzero"/><path fill="#006679" d="M 1154.261719 306.695312 L 1143.582031 307.292969 L 1065.433594 385.441406 L 1064.835938 396.121094 Z M 1154.261719 306.695312 " fill-opacity="1" fill-rule="nonzero"/><path fill="#53c6cb" d="M 1154.261719 306.695312 L 1153.667969 317.375 L 1075.511719 395.527344 L 1064.835938 396.121094 Z M 1154.261719 306.695312 " fill-opacity="1" fill-rule="nonzero"/><g fill="#000000" fill-opacity="1"><g transform="translate(482.90019, 411.416879)"><g><path d="M 125.46875 -61.453125 C 125.46875 -58.035156 125.253906 -54.476562 124.828125 -50.78125 L 42.25 -50.78125 C 42.820312 -43.382812 45.203125 -37.726562 49.390625 -33.8125 C 53.585938 -29.90625 58.75 -27.953125 64.875 -27.953125 C 73.976562 -27.953125 80.304688 -31.796875 83.859375 -39.484375 L 122.703125 -39.484375 C 120.710938 -31.648438 117.117188 -24.601562 111.921875 -18.34375 C 106.734375 -12.09375 100.222656 -7.1875 92.390625 -3.625 C 84.566406 -0.0703125 75.820312 1.703125 66.15625 1.703125 C 54.488281 1.703125 44.101562 -0.785156 35 -5.765625 C 25.894531 -10.742188 18.78125 -17.851562 13.65625 -27.09375 C 8.53125 -36.34375 5.96875 -47.15625 5.96875 -59.53125 C 5.96875 -71.90625 8.492188 -82.71875 13.546875 -91.96875 C 18.597656 -101.21875 25.675781 -108.332031 34.78125 -113.3125 C 43.882812 -118.289062 54.34375 -120.78125 66.15625 -120.78125 C 77.675781 -120.78125 87.914062 -118.359375 96.875 -113.515625 C 105.84375 -108.679688 112.847656 -101.78125 117.890625 -92.8125 C 122.941406 -83.851562 125.46875 -73.398438 125.46875 -61.453125 Z M 88.125 -71.0625 C 88.125 -77.320312 85.988281 -82.300781 81.71875 -86 C 77.457031 -89.695312 72.125 -91.546875 65.71875 -91.546875 C 59.601562 -91.546875 54.445312 -89.765625 50.25 -86.203125 C 46.050781 -82.648438 43.457031 -77.601562 42.46875 -71.0625 Z M 88.125 -71.0625 "/></g></g></g><g fill="#000000" fill-opacity="1"><g transform="translate(614.335109, 411.416879)"><g><path d="M 5.96875 -59.75 C 5.96875 -71.976562 8.28125 -82.71875 12.90625 -91.96875 C 17.53125 -101.21875 23.828125 -108.332031 31.796875 -113.3125 C 39.765625 -118.289062 48.65625 -120.78125 58.46875 -120.78125 C 66.289062 -120.78125 73.4375 -119.144531 79.90625 -115.875 C 86.382812 -112.601562 91.472656 -108.191406 95.171875 -102.640625 L 95.171875 -157.90625 L 131.65625 -157.90625 L 131.65625 0 L 95.171875 0 L 95.171875 -17.078125 C 91.753906 -11.378906 86.878906 -6.820312 80.546875 -3.40625 C 74.222656 0 66.863281 1.703125 58.46875 1.703125 C 48.65625 1.703125 39.765625 -0.816406 31.796875 -5.859375 C 23.828125 -10.910156 17.53125 -18.09375 12.90625 -27.40625 C 8.28125 -36.726562 5.96875 -47.507812 5.96875 -59.75 Z M 95.171875 -59.53125 C 95.171875 -68.632812 92.644531 -75.816406 87.59375 -81.078125 C 82.539062 -86.347656 76.390625 -88.984375 69.140625 -88.984375 C 61.878906 -88.984375 55.722656 -86.382812 50.671875 -81.1875 C 45.628906 -76 43.109375 -68.851562 43.109375 -59.75 C 43.109375 -50.644531 45.628906 -43.425781 50.671875 -38.09375 C 55.722656 -32.757812 61.878906 -30.09375 69.140625 -30.09375 C 76.390625 -30.09375 82.539062 -32.722656 87.59375 -37.984375 C 92.644531 -43.242188 95.171875 -50.425781 95.171875 -59.53125 Z M 95.171875 -59.53125 "/></g></g></g><g fill="#000000" fill-opacity="1"><g transform="translate(759.212228, 411.416879)"><g><path d="M 31.578125 -131.453125 C 25.179688 -131.453125 19.953125 -133.335938 15.890625 -137.109375 C 11.835938 -140.878906 9.8125 -145.535156 9.8125 -151.078125 C 9.8125 -156.765625 11.835938 -161.492188 15.890625 -165.265625 C 19.953125 -169.035156 25.179688 -170.921875 31.578125 -170.921875 C 37.835938 -170.921875 42.992188 -169.035156 47.046875 -165.265625 C 51.109375 -161.492188 53.140625 -156.765625 53.140625 -151.078125 C 53.140625 -145.535156 51.109375 -140.878906 47.046875 -137.109375 C 42.992188 -133.335938 37.835938 -131.453125 31.578125 -131.453125 Z M 49.71875 -119.078125 L 49.71875 0 L 13.234375 0 L 13.234375 -119.078125 Z M 49.71875 -119.078125 "/></g></g></g><g fill="#0cc0df" fill-opacity="1"><g transform="translate(822.237973, 414.347283)"><g><path d="M 67.4375 1.5 C 56.476562 1.5 46.660156 -0.273438 37.984375 -3.828125 C 29.304688 -7.390625 22.367188 -12.65625 17.171875 -19.625 C 11.984375 -26.601562 9.25 -35 8.96875 -44.8125 L 47.796875 -44.8125 C 48.367188 -39.257812 50.289062 -35.023438 53.5625 -32.109375 C 56.832031 -29.191406 61.097656 -27.734375 66.359375 -27.734375 C 71.765625 -27.734375 76.03125 -28.976562 79.15625 -31.46875 C 82.289062 -33.957031 83.859375 -37.410156 83.859375 -41.828125 C 83.859375 -45.523438 82.613281 -48.582031 80.125 -51 C 77.632812 -53.414062 74.578125 -55.40625 70.953125 -56.96875 C 67.328125 -58.539062 62.171875 -60.320312 55.484375 -62.3125 C 45.804688 -65.300781 37.910156 -68.285156 31.796875 -71.265625 C 25.679688 -74.253906 20.414062 -78.664062 16 -84.5 C 11.59375 -90.332031 9.390625 -97.941406 9.390625 -107.328125 C 9.390625 -121.273438 14.4375 -132.195312 24.53125 -140.09375 C 34.632812 -147.988281 47.796875 -151.9375 64.015625 -151.9375 C 80.515625 -151.9375 93.816406 -147.988281 103.921875 -140.09375 C 114.023438 -132.195312 119.429688 -121.207031 120.140625 -107.125 L 80.65625 -107.125 C 80.375 -111.957031 78.597656 -115.757812 75.328125 -118.53125 C 72.054688 -121.3125 67.859375 -122.703125 62.734375 -122.703125 C 58.328125 -122.703125 54.769531 -121.523438 52.0625 -119.171875 C 49.363281 -116.828125 48.015625 -113.453125 48.015625 -109.046875 C 48.015625 -104.203125 50.289062 -100.425781 54.84375 -97.71875 C 59.394531 -95.019531 66.507812 -92.109375 76.1875 -88.984375 C 85.851562 -85.710938 93.707031 -82.582031 99.75 -79.59375 C 105.800781 -76.601562 111.03125 -72.265625 115.4375 -66.578125 C 119.851562 -60.890625 122.0625 -53.5625 122.0625 -44.59375 C 122.0625 -36.0625 119.890625 -28.3125 115.546875 -21.34375 C 111.210938 -14.375 104.921875 -8.820312 96.671875 -4.6875 C 88.421875 -0.5625 78.675781 1.5 67.4375 1.5 Z M 67.4375 1.5 "/></g></g></g><g fill="#0cc0df" fill-opacity="1"><g transform="translate(953.459516, 414.347283)"><g><path d="M 79.59375 -30.9375 L 79.59375 0 L 61.03125 0 C 47.800781 0 37.484375 -3.234375 30.078125 -9.703125 C 22.679688 -16.179688 18.984375 -26.742188 18.984375 -41.390625 L 18.984375 -88.765625 L 4.484375 -88.765625 L 4.484375 -119.078125 L 18.984375 -119.078125 L 18.984375 -148.09375 L 55.484375 -148.09375 L 55.484375 -119.078125 L 79.375 -119.078125 L 79.375 -88.765625 L 55.484375 -88.765625 L 55.484375 -40.96875 C 55.484375 -37.414062 56.335938 -34.851562 58.046875 -33.28125 C 59.753906 -31.71875 62.597656 -30.9375 66.578125 -30.9375 Z M 79.59375 -30.9375 "/></g></g></g><g fill="#0cc0df" fill-opacity="1"><g transform="translate(1178.976403, 411.416879)"><g><path d="M 5.96875 -59.53125 C 5.96875 -71.90625 8.492188 -82.71875 13.546875 -91.96875 C 18.597656 -101.21875 25.640625 -108.332031 34.671875 -113.3125 C 43.703125 -118.289062 54.050781 -120.78125 65.71875 -120.78125 C 80.65625 -120.78125 93.140625 -116.867188 103.171875 -109.046875 C 113.203125 -101.222656 119.78125 -90.195312 122.90625 -75.96875 L 84.078125 -75.96875 C 80.804688 -85.070312 74.472656 -89.625 65.078125 -89.625 C 58.398438 -89.625 53.066406 -87.023438 49.078125 -81.828125 C 45.097656 -76.640625 43.109375 -69.207031 43.109375 -59.53125 C 43.109375 -49.863281 45.097656 -42.429688 49.078125 -37.234375 C 53.066406 -32.046875 58.398438 -29.453125 65.078125 -29.453125 C 74.472656 -29.453125 80.804688 -34.003906 84.078125 -43.109375 L 122.90625 -43.109375 C 119.78125 -29.160156 113.164062 -18.203125 103.0625 -10.234375 C 92.96875 -2.273438 80.519531 1.703125 65.71875 1.703125 C 54.050781 1.703125 43.703125 -0.785156 34.671875 -5.765625 C 25.640625 -10.742188 18.597656 -17.851562 13.546875 -27.09375 C 8.492188 -36.34375 5.96875 -47.15625 5.96875 -59.53125 Z M 5.96875 -59.53125 "/></g></g></g><g fill="#0cc0df" fill-opacity="1"><g transform="translate(1308.064238, 411.416879)"><g><path d="M 86 0 L 49.71875 -49.9375 L 49.71875 0 L 13.234375 0 L 13.234375 -157.90625 L 49.71875 -157.90625 L 49.71875 -70.625 L 85.78125 -119.078125 L 130.8125 -119.078125 L 81.296875 -59.328125 L 131.234375 0 Z M 86 0 "/></g></g></g></svg>